<svg xmlns="http://www.w3.org/2000/svg" xmlns:xlink="http://www.w3.org/1999/xlink" viewBox="0 0 32 32" fill="#FFFFFF">
  <path d="M16 4C9.382813 4 4 9.382813 4 16C4 22.617188 9.382813 28 16 28C22.617188 28 28 22.617188 28 16C28 9.382813 22.617188 4 16 4 Z M 16 6C21.535156 6 26 10.464844 26 16C26 21.535156 21.535156 26 16 26C10.464844 26 6 21.535156 6 16C6 10.464844 10.464844 6 16 6 Z M 16 7C15.449219 7 15 7.449219 15 8C15 8.550781 15.449219 9 16 9C16.550781 9 17 8.550781 17 8C17 7.449219 16.550781 7 16 7 Z M 10.34375 9.34375C9.792969 9.34375 9.34375 9.792969 9.34375 10.34375C9.34375 10.894531 9.792969 11.34375 10.34375 11.34375C10.894531 11.34375 11.34375 10.894531 11.34375 10.34375C11.34375 9.792969 10.894531 9.34375 10.34375 9.34375 Z M 20.9375 9.65625L16.5 14.0625C16.339844 14.019531 16.171875 14 16 14C14.894531 14 14 14.894531 14 16C14 17.105469 14.894531 18 16 18C17.105469 18 18 17.105469 18 16C18 15.828125 17.980469 15.660156 17.9375 15.5L22.375 11.0625 Z M 8 15C7.449219 15 7 15.449219 7 16C7 16.550781 7.449219 17 8 17C8.550781 17 9 16.550781 9 16C9 15.449219 8.550781 15 8 15 Z M 24 15C23.449219 15 23 15.449219 23 16C23 16.550781 23.449219 17 24 17C24.550781 17 25 16.550781 25 16C25 15.449219 24.550781 15 24 15 Z M 10.34375 20.65625C9.792969 20.65625 9.34375 21.105469 9.34375 21.65625C9.34375 22.207031 9.792969 22.65625 10.34375 22.65625C10.894531 22.65625 11.34375 22.207031 11.34375 21.65625C11.34375 21.105469 10.894531 20.65625 10.34375 20.65625 Z M 21.65625 20.65625C21.105469 20.65625 20.65625 21.105469 20.65625 21.65625C20.65625 22.207031 21.105469 22.65625 21.65625 22.65625C22.207031 22.65625 22.65625 22.207031 22.65625 21.65625C22.65625 21.105469 22.207031 20.65625 21.65625 20.65625Z" fill="#FFFFFF" />
</svg>