<svg xmlns="http://www.w3.org/2000/svg" xmlns:xlink="http://www.w3.org/1999/xlink" viewBox="0 0 24 24" fill="#FFFFFF">
  <path d="M2 3L2 5L13 5L13 3L2 3 z M 15 3L15 5L18 5L18 3L15 3 z M 20 3L20 5L22 5L22 3L20 3 z M 2 7L2 9L10 9L10 7L2 7 z M 15 7L15 9L18 9L18 7L15 7 z M 20 7L20 9L22 9L22 7L20 7 z M 2 11L2 13L12 13L12 11L2 11 z M 15 11L15 13L18 13L18 11L15 11 z M 20 11L20 13L22 13L22 11L20 11 z M 2 15L2 17L13 17L13 15L2 15 z M 15 15L15 17L18 17L18 15L15 15 z M 20 15L20 17L22 17L22 15L20 15 z M 2 19L2 21L11 21L11 19L2 19 z M 15 19L15 21L18 21L18 19L15 19 z M 20 19L20 21L22 21L22 19L20 19 z" fill="#FFFFFF" />
</svg>