<svg xmlns="http://www.w3.org/2000/svg" xmlns:xlink="http://www.w3.org/1999/xlink" viewBox="0 0 32 32" fill="#FFFFFF">
  <path d="M11.5 6C9.578125 6 8 7.578125 8 9.5C8 11.421875 9.578125 13 11.5 13C13.421875 13 15 11.421875 15 9.5C15 7.578125 13.421875 6 11.5 6 Z M 20.5 6C18.578125 6 17 7.578125 17 9.5C17 11.421875 18.578125 13 20.5 13C22.421875 13 24 11.421875 24 9.5C24 7.578125 22.421875 6 20.5 6 Z M 11.5 8C12.339844 8 13 8.660156 13 9.5C13 10.339844 12.339844 11 11.5 11C10.660156 11 10 10.339844 10 9.5C10 8.660156 10.660156 8 11.5 8 Z M 20.5 8C21.339844 8 22 8.660156 22 9.5C22 10.339844 21.339844 11 20.5 11C19.660156 11 19 10.339844 19 9.5C19 8.660156 19.660156 8 20.5 8 Z M 7 12C4.800781 12 3 13.800781 3 16C3 17.113281 3.476563 18.117188 4.21875 18.84375C2.886719 19.746094 2 21.28125 2 23L4 23C4 21.332031 5.332031 20 7 20C8.667969 20 10 21.332031 10 23L12 23C12 21.28125 11.113281 19.746094 9.78125 18.84375C10.523438 18.117188 11 17.113281 11 16C11 13.800781 9.199219 12 7 12 Z M 12 23C11.375 23.835938 11 24.886719 11 26L13 26C13 24.332031 14.332031 23 16 23C17.667969 23 19 24.332031 19 26L21 26C21 24.886719 20.625 23.835938 20 23C19.660156 22.546875 19.25 22.160156 18.78125 21.84375C19.523438 21.117188 20 20.113281 20 19C20 16.800781 18.199219 15 16 15C13.800781 15 12 16.800781 12 19C12 20.113281 12.476563 21.117188 13.21875 21.84375C12.75 22.160156 12.339844 22.546875 12 23 Z M 20 23L22 23C22 21.332031 23.332031 20 25 20C26.667969 20 28 21.332031 28 23L30 23C30 21.28125 29.113281 19.746094 27.78125 18.84375C28.523438 18.117188 29 17.113281 29 16C29 13.800781 27.199219 12 25 12C22.800781 12 21 13.800781 21 16C21 17.113281 21.476563 18.117188 22.21875 18.84375C20.886719 19.746094 20 21.28125 20 23 Z M 7 14C8.117188 14 9 14.882813 9 16C9 17.117188 8.117188 18 7 18C5.882813 18 5 17.117188 5 16C5 14.882813 5.882813 14 7 14 Z M 25 14C26.117188 14 27 14.882813 27 16C27 17.117188 26.117188 18 25 18C23.882813 18 23 17.117188 23 16C23 14.882813 23.882813 14 25 14 Z M 16 17C17.117188 17 18 17.882813 18 19C18 20.117188 17.117188 21 16 21C14.882813 21 14 20.117188 14 19C14 17.882813 14.882813 17 16 17Z" fill="#FFFFFF" />
</svg>